<svg xmlns="http://www.w3.org/2000/svg" viewBox="0 0 1375 405" role="img" aria-label="Logo" fill="#111"><g><path d="M1051.69,394.57h-54.65l-2.02-2.02v-33.06c-42.56,49.75-117.24,53.96-170.74,18.93-78.29-51.26-81.53-180.87-9.37-238.84,49.67-39.91,129.04-42.78,173.35,6.71l1.36-141.69h61.4l.67,389.98ZM893.51,170.95c-87.55,10.51-90.94,159.71,6.53,169.48,117.59,11.79,121.12-184.81-6.53-169.48Z"/><path d="M679.26,356.79c-42.34,48.71-111.23,58.07-166.88,25.87-89.21-51.62-91.14-196.86-4.39-251.79,46.28-29.3,111.66-29.62,155.09,5.28l16.18,16.88v-37.78h56.68v279.33h-56.68v-37.78ZM585.92,169.55c-101.03,2.6-103.13,162.67-4.47,171.03,117.35,9.94,120.05-174,4.47-171.03Z"/><path d="M204.27,194.86c-10.91-35.78-68.12-38.63-96.73-27.23-25.2,10.04-27.56,30.88-.79,41.76,49.3,20.02,153.48,18.37,160.77,87.52,5.15,48.85-27.44,82.07-72.42,93.22-72.52,17.97-169.96-6.31-181.1-91.36h60.72c5.34,28.33,32.46,39.88,58.72,41.81,19.34,1.43,66.25,1.8,71.57-22.84,4.2-19.43-14.07-24.71-28.79-29.38-60.82-19.3-170.98-21.31-146.2-115.93,22.64-86.43,198.37-88.08,229.59,2.85.89,2.58,6.66,19.59,2.01,19.59h-57.35Z"/><path d="M351.35,24.84v90.41h86.36v59.37h-86.36l1.3,128.92c.82,14.68,10.18,28.78,25.33,31.34,7.14,1.21,21.35,1.42,29.31,1.73,11,.42,22.12-.42,33.12-.06v58.02h-65.45c-42.34,0-83.34-40.72-84.32-83.01l-1.33-244.19c.29-2.95,2.91-4.23,4.93-5.87,11.48-9.31,39.68-28.28,52.67-35.05,1.51-.79,2.36-2.11,4.44-1.63Z"/><rect x="1094.87" y="4.6" width="63.42" height="391.33"/><rect x="1200.13" y="115.25" width="60.72" height="280.68"/><path d="M1225.47,3.63c46.2-4.43,58.77,59.87,17.22,73.89-55.1,18.6-70.9-68.74-17.22-73.89Z"/></g><path d="M1328.45,398.23c-4.33,0-8.38-.78-12.15-2.35s-7.06-3.76-9.88-6.59c-2.82-2.82-5.02-6.1-6.59-9.84-1.57-3.73-2.35-7.77-2.35-12.1s.78-8.38,2.35-12.15c1.57-3.76,3.76-7.06,6.59-9.88,2.82-2.82,6.12-5.02,9.88-6.59,3.76-1.57,7.81-2.35,12.15-2.35s8.37.78,12.1,2.35c3.73,1.57,7.01,3.76,9.84,6.59,2.82,2.82,5.02,6.12,6.59,9.88s2.35,7.81,2.35,12.15-.78,8.37-2.35,12.1c-1.57,3.74-3.76,7.01-6.59,9.84-2.82,2.82-6.1,5.02-9.84,6.59-3.74,1.57-7.77,2.35-12.1,2.35ZM1328.45,392.16c4.73,0,8.92-1.05,12.57-3.17,3.65-2.11,6.51-5.05,8.6-8.81,2.08-3.76,3.12-8.04,3.12-12.83s-1.06-9.15-3.17-12.92c-2.11-3.76-4.99-6.7-8.64-8.81-3.65-2.11-7.81-3.17-12.49-3.17s-8.85,1.06-12.53,3.17c-3.68,2.11-6.57,5.05-8.68,8.81-2.11,3.76-3.17,8.07-3.17,12.92s1.05,9.07,3.17,12.83c2.11,3.76,5,6.7,8.68,8.81,3.68,2.11,7.85,3.17,12.53,3.17ZM1328.36,384.29c-3.14,0-5.9-.71-8.3-2.14-2.4-1.42-4.26-3.41-5.6-5.94-1.34-2.54-2.01-5.49-2.01-8.85s.67-6.31,2.01-8.85c1.34-2.54,3.19-4.52,5.56-5.94,2.37-1.42,5.12-2.14,8.25-2.14,2.74,0,5.35.73,7.83,2.18s4.35,3.41,5.6,5.86l1.11,2.22-5.73,2.22-1.11-1.8c-.74-1.31-1.83-2.38-3.25-3.21-1.43-.83-2.91-1.24-4.45-1.24-2.79,0-5.06.98-6.8,2.95-1.74,1.97-2.61,4.55-2.61,7.74s.88,5.7,2.65,7.7c1.77,2,4.05,2.99,6.84,2.99,1.54,0,3.04-.48,4.49-1.45,1.45-.97,2.61-2.19,3.46-3.68l.77-1.54,5.99,2.14-1.03,2.05c-1.31,2.62-3.22,4.73-5.73,6.33-2.51,1.6-5.16,2.39-7.96,2.39Z"/></svg>